<svg width="112" height="35" viewBox="0 0 112 35" fill="none" xmlns="http://www.w3.org/2000/svg">
<rect width="112" height="35" rx="4" fill="#FFD600" fill-opacity="0.35"/>
<path d="M18.6641 21.3125V23H12.6172V21.3125H18.6641ZM13.2734 11.625V23H11.125V11.625H13.2734ZM17.875 16.3203V17.9688H12.6172V16.3203H17.875ZM18.6406 11.625V13.3203H12.6172V11.625H18.6406ZM21.0938 11.625H22.9531L26.0625 20.1875L29.1641 11.625H31.0312L26.8047 23H25.3125L21.0938 11.625ZM20.1562 11.625H21.9766L22.3047 19.4922V23H20.1562V11.625ZM30.1406 11.625H31.9688V23H29.8203V19.4922L30.1406 11.625ZM42.6641 13.3516L39.4219 23H37.1484L41.3984 11.625H42.8516L42.6641 13.3516ZM45.375 23L42.1172 13.3516L41.9219 11.625H43.3828L47.6562 23H45.375ZM45.2266 18.7734V20.4688H39.125V18.7734H45.2266ZM57.9688 11.625V23H55.8125L50.9766 15.1094V23H48.8281V11.625H50.9766L55.8281 19.5234V11.625H57.9688ZM64.8203 13.3516L61.5781 23H59.3047L63.5547 11.625H65.0078L64.8203 13.3516ZM67.5312 23L64.2734 13.3516L64.0781 11.625H65.5391L69.8125 23H67.5312ZM67.3828 18.7734V20.4688H61.2812V18.7734H67.3828ZM63.5625 10.9531L65.0938 8.57812H67.375L65.2422 10.9531H63.5625ZM78.2031 21.3125V23H72.4844V21.3125H78.2031ZM73.1328 11.625V23H70.9844V11.625H73.1328ZM81.9297 11.625V23H79.7812V11.625H81.9297ZM90.2031 20.0469C90.2031 19.8281 90.1693 19.6328 90.1016 19.4609C90.0391 19.2839 89.9219 19.125 89.75 18.9844C89.5833 18.8385 89.3464 18.6979 89.0391 18.5625C88.737 18.4219 88.3464 18.276 87.8672 18.125C87.3359 17.9583 86.8411 17.7708 86.3828 17.5625C85.9245 17.3542 85.5208 17.112 85.1719 16.8359C84.8281 16.5599 84.5599 16.2422 84.3672 15.8828C84.1745 15.5182 84.0781 15.0964 84.0781 14.6172C84.0781 14.1484 84.1771 13.7214 84.375 13.3359C84.5781 12.9505 84.8646 12.6198 85.2344 12.3438C85.6042 12.0625 86.0391 11.8464 86.5391 11.6953C87.0443 11.5443 87.6016 11.4688 88.2109 11.4688C89.0547 11.4688 89.7839 11.6224 90.3984 11.9297C91.0182 12.237 91.4974 12.6536 91.8359 13.1797C92.1745 13.7057 92.3438 14.2969 92.3438 14.9531H90.2031C90.2031 14.599 90.1276 14.2865 89.9766 14.0156C89.8307 13.7448 89.6068 13.5312 89.3047 13.375C89.0078 13.2188 88.6328 13.1406 88.1797 13.1406C87.7422 13.1406 87.3776 13.2057 87.0859 13.3359C86.7995 13.4661 86.5833 13.6432 86.4375 13.8672C86.2969 14.0911 86.2266 14.3411 86.2266 14.6172C86.2266 14.8255 86.276 15.013 86.375 15.1797C86.474 15.3411 86.6224 15.4948 86.8203 15.6406C87.0182 15.7812 87.263 15.9141 87.5547 16.0391C87.8516 16.1589 88.1953 16.2786 88.5859 16.3984C89.2109 16.5859 89.7578 16.7943 90.2266 17.0234C90.7005 17.2526 91.0938 17.513 91.4062 17.8047C91.724 18.0964 91.9609 18.4245 92.1172 18.7891C92.2786 19.1536 92.3594 19.5677 92.3594 20.0312C92.3594 20.5208 92.263 20.9583 92.0703 21.3438C91.8776 21.7292 91.6016 22.0573 91.2422 22.3281C90.8828 22.599 90.4505 22.8047 89.9453 22.9453C89.4453 23.0859 88.8854 23.1562 88.2656 23.1562C87.7135 23.1562 87.1667 23.0833 86.625 22.9375C86.0885 22.7865 85.6016 22.5625 85.1641 22.2656C84.7266 21.9635 84.3776 21.5833 84.1172 21.125C83.8568 20.6615 83.7266 20.1198 83.7266 19.5H85.8828C85.8828 19.8594 85.9401 20.1667 86.0547 20.4219C86.1745 20.6719 86.3411 20.8776 86.5547 21.0391C86.7734 21.1953 87.0286 21.3099 87.3203 21.3828C87.612 21.4557 87.9271 21.4922 88.2656 21.4922C88.7031 21.4922 89.0625 21.4323 89.3438 21.3125C89.6302 21.1875 89.8438 21.0156 89.9844 20.7969C90.1302 20.5781 90.2031 20.3281 90.2031 20.0469ZM101.555 21.3125V23H95.5078V21.3125H101.555ZM96.1641 11.625V23H94.0156V11.625H96.1641ZM100.766 16.3203V17.9688H95.5078V16.3203H100.766ZM101.531 11.625V13.3203H95.5078V11.625H101.531Z" fill="#CF8900"/>
</svg>
